PathFileType	3	(X/Y/Z)	D:\Jess\PFP\Labelled\PA03\20250519\SRRun01.trc
DataRate	CameraRate	NumFrames	NumMarkers	Units	OrigDataRate	OrigDataStartFrame	OrigNumFrames
250.0	250.0	4	33	mm	250.0	35937	2501
Frame#	Time	C7			T10			CLAV			LSHO			RSHO			LASIS			RASIS			LPSIS			RPSIS			LILCR			RILCR			LGTR			LTHI			LLTHI			LLEP			LPSH			LLSH			LDSH			LLMAL			LTOE			L5TH			LHEE			RGTR			RTHI			RLTHI			RLEP			RPSH			RLSH			RDSH			RLMAL			RTOE			R5TH			RHEE			
		X1	Y1	Z1	X2	Y2	Z2	X3	Y3	Z3	X4	Y4	Z4	X5	Y5	Z5	X6	Y6	Z6	X7	Y7	Z7	X8	Y8	Z8	X9	Y9	Z9	X10	Y10	Z10	X11	Y11	Z11	X12	Y12	Z12	X13	Y13	Z13	X14	Y14	Z14	X15	Y15	Z15	X16	Y16	Z16	X17	Y17	Z17	X18	Y18	Z18	X19	Y19	Z19	X20	Y20	Z20	X21	Y21	Z21	X22	Y22	Z22	X23	Y23	Z23	X24	Y24	Z24	X25	Y25	Z25	X26	Y26	Z26	X27	Y27	Z27	X28	Y28	Z28	X29	Y29	Z29	X30	Y30	Z30	X31	Y31	Z31	X32	Y32	Z32	X33	Y33	Z33	

938	143.744	605.5834917215875	1483.41285595567	-279.7446048251834	491.1003395244492	1265.786243423098	-274.9413544351846	717.7302723339526	1366.19122563228	-302.9629859008903	615.0934159826784	1445.562136217206	-448.2369102945599	672.0856058213932	1429.850136420185	-138.2608696228364	642.6859959222442	963.3240529788607	-424.487819717875	630.0630011439844	964.0317624653198	-165.6322947720235	466.6905961945782	1028.961327351357	-324.4113232870949	462.4700361426586	1030.248732173465	-283.7468001471168	569.3795613043344	1036.070660158378	-464.0389237923619	574.1581055271256	1046.977230834884	-138.7485586999803	564.1675878953237	883.7648065214371	-478.3751759556447	743.3023148037715	756.4026385857039	-388.1602975931483	695.4563352246871	637.5186115498331	-461.8227326430493	733.9357693812075	515.6397270400216	-439.9304093478042	730.9917642029238	423.2221604510968	-388.4133951189776	587.9352693971508	410.7946403610748	-456.4275150560517	541.9774113525095	311.3520032032193	-399.500039012951	422.0218819656584	302.5909367316627	-441.9015264045832	449.948473059443	141.0126949801692	-429.3066774684688	407.5952189236724	150.3674232962452	-472.9090203703711	361.8316271063539	333.5763208749174	-400.1834632384467	558.9992120320987	877.6247690588212	-120.9580365082209	639.0301163960288	689.9033584072495	-209.8333810896953	528.5293551846298	620.8033901505439	-153.5778048761647	508.4487807045105	471.5893602534588	-188.3500540527901	506.0318219733048	371.1420569489858	-254.3075079203871	392.0724093180395	289.6870155589388	-202.3117287879716	378.755964747536	208.37843797018	-275.8563154098294	277.197299905149	141.2108970325788	-244.5473748347055	399.0691889158031	57.98439186709554	-264.9041149357051	361.1133537074509	49.50809595103709	-223.0592803392225	198.2258850984448	133.8546865030713	-291.1108535872912	
939	143.748	605.8831735266547	1485.956440583866	-279.9257377336147	492.0329294748215	1268.077349598878	-273.5407034649961	718.0240154454727	1369.232862697858	-304.4725536591371	613.3890924225702	1448.419593393744	-448.3217697294991	674.0859041037692	1432.754163490366	-139.2810101198618	643.0319252646339	966.5200131740457	-424.2416644827909	630.823318904285	965.216059981871	-165.4437175514323	467.2885788462944	1031.730150805269	-323.7697989286829	463.3097895866879	1032.866516108364	-283.0366325816281	569.8104357462224	1039.514766986191	-463.6260249839891	576.1426521242782	1048.706864331385	-138.4929475916133	565.1483956415814	887.5271321539198	-479.0437203805876	744.3900950371242	761.8528250296575	-387.8188620955378	698.1222273178743	642.1636148342884	-461.8372742530484	737.2311302713427	520.2024537671105	-439.522444334454	737.0097655576648	427.2620195714732	-388.4085227959579	593.9753175647462	410.0244815976999	-455.6793238319549	551.9616487992813	308.80198890099	-398.8754880109283	432.1159404405358	295.8072695398663	-440.7701839657141	466.7729147085996	135.4750040592726	-428.8699650190082	423.8005129709189	143.1588838423316	-472.1328788256424	370.7879221300375	324.1124750213386	-398.6244278009684	558.4710572964658	879.2562859131837	-121.3263307318626	635.5622951654486	690.7057092138501	-211.1506875277086	524.355901671486	623.0288461275389	-154.0685780838189	501.3359901211738	474.3281757043254	-188.7431865813498	497.8480710903968	373.8326571496686	-254.6520965900667	383.5583157948153	293.074126615774	-202.3411654744447	370.2143495452411	211.1386029516442	-275.2949857725833	268.1930158678338	144.3576701729734	-244.1490732714131	388.323546460134	57.6876878634579	-264.5337841394828	350.0621662368313	49.69139665123266	-222.9579547960292	189.4462295050712	138.3604488102817	-290.9241255280796	
940	143.752	606.2172181881626	1488.54654547373	-280.1285825301104	493.017858747722	1270.420457875252	-272.1263730621955	718.3222900265764	1372.303702567793	-305.9750427551672	611.7750077832055	1451.283659394215	-448.3851198771836	676.0920382726847	1435.737614480498	-140.3410781435024	643.469737338978	969.8051673925432	-423.9536188904304	631.6785010152441	966.483060979582	-165.2717195868678	467.9893507017426	1034.567960497488	-323.1994924864837	464.2624558342795	1035.550482980116	-282.3930820019402	570.3961779087118	1043.080683586005	-463.21491691887	578.1939560035504	1050.487353264347	-138.2658443532745	566.2503461635655	891.3872130998961	-479.7319145364066	745.438951354299	767.2736279351906	-387.4122601619229	700.6760144659054	646.8134592108174	-461.834489146721	740.1634244743673	524.6434877421502	-439.11083707346	742.7399880208624	431.2267256106252	-388.4687718279528	599.8746941176414	409.129880452015	-454.9040432485013	561.9883892111033	306.191746846235	-398.273039562637	442.4049410205635	288.8885059752151	-439.6133495382887	483.8279288073388	130.0933523151436	-428.4289412601287	440.2829975036071	136.0527523554459	-471.348319208735	380.0599267034203	314.4374391805777	-397.0211859488315	558.0250687203699	880.9864637356139	-121.7288440619113	632.2167743342505	691.6677506126534	-212.4913450277392	520.3862547685327	625.4091516162787	-154.5090099186604	494.3174761560829	477.2802944279324	-189.0757800904552	489.8061297431378	376.7062196370508	-254.8583704645791	375.1654865226964	296.6585453227395	-202.3039152869073	361.892868079128	214.0366615278292	-274.6050899668634	259.4279488369748	147.596177957984	-243.6699088507477	377.6718102329194	57.38842168466599	-264.1187339436838	339.0964774323767	49.88952216231861	-222.8315789313679	180.952650922221	143.0370493311537	-290.7019945288039	
941	143.756	606.5837114225142	1491.167770466959	-280.3512256763883	494.0528562763103	1272.804818100756	-270.7019609021115	718.6231129875645	1375.386981314158	-307.4652456048827	610.258131091976	1454.140778498625	-448.4294264362741	678.1011616089731	1438.785003826069	-141.4405003763041	643.99005504717	973.172011866185	-423.6299050683439	632.6312742018109	967.8261901343427	-165.1226219786761	468.7897247148175	1037.462851781884	-322.6994878219833	465.3256196135135	1038.28892487029	-281.8171252332385	571.1154276459865	1046.752253585266	-462.8075113457542	580.2974351369031	1052.311151471989	-138.0707644835331	567.4492583584145	895.3311174030678	-480.4319693800693	746.4599570675678	772.648053652726	-386.9582708917779	703.1105820260148	651.4504675023505	-461.8042933490237	742.7417029368681	528.9329154288533	-438.6948328597509	748.183159178529	435.095130553102	-388.5830578412088	605.6534336896248	408.0912168434201	-454.1095238769383	572.0606326225895	303.5275849637515	-397.6937589079888	452.9037968316263	281.8506252046096	-438.442756737549	501.1012760364143	124.8925496956623	-427.9835932753395	457.0400961488554	129.0761582983919	-470.5626726318659	389.6693788951292	304.5799737792986	-395.39332948289	557.6756439680076	882.799672693809	-122.161518079617	629.0039594826753	692.7527948331847	-213.8202152407521	516.5966182110769	627.9300358538557	-154.90587787628	487.3839401831556	480.4307657772656	-189.3468284844812	481.9154757049729	379.7404211890534	-254.9075936082356	366.8932315269866	300.4277827292842	-202.1922022631805	353.7993158847005	217.0574805362357	-273.7784591546255	250.914585333435	150.9106486573496	-243.0993433784238	367.1224441800038	57.0935835156431	-263.6599680086229	328.2265824330849	50.10947731238588	-222.6782859945261	172.7614269685876	147.8732493611256	-290.4269116998757	
